<svg xmlns="http://www.w3.org/2000/svg" width="100" height="100" viewBox="0 0 100 100">
  <g id="동아리일정" transform="translate(-140 -963)">
    <rect id="사각형_24007" data-name="사각형 24007" width="100" height="100" transform="translate(140 963)" fill="#fff"/>
    <g id="calendar" transform="translate(163.875 977.187)">
      <path id="패스_7" data-name="패스 7" d="M48.624,8.645H39.457V2.813H36.124V8.647h-20V2.813H12.791V8.647H3.626a2.5,2.5,0,0,0-2.5,2.5v35a2.5,2.5,0,0,0,2.5,2.5h45a2.5,2.5,0,0,0,2.5-2.5v-35A2.5,2.5,0,0,0,48.624,8.645ZM47.79,45.311H4.458V11.979h8.333v4.167h3.333V11.979h20v4.167h3.333V11.979H47.79Z" transform="translate(0 0)"/>
      <path id="패스_8" data-name="패스 8" d="M7.875,15.75h3.418v3.418H7.875Z" transform="translate(3.232 6.19)"/>
      <path id="패스_9" data-name="패스 9" d="M14.063,15.75h3.418v3.418H14.063Z" transform="translate(6.194 6.19)"/>
      <path id="패스_10" data-name="패스 10" d="M19.688,15.75h3.418v3.418H19.688Z" transform="translate(8.887 6.19)"/>
      <path id="패스_11" data-name="패스 11" d="M25.875,15.75h3.418v3.418H25.875Z" transform="translate(11.849 6.19)"/>
      <path id="패스_12" data-name="패스 12" d="M7.875,20.813h3.418v3.418H7.875Z" transform="translate(3.232 8.613)"/>
      <path id="패스_13" data-name="패스 13" d="M14.063,20.813h3.418v3.418H14.063Z" transform="translate(6.194 8.613)"/>
      <path id="패스_14" data-name="패스 14" d="M19.688,20.813h3.418v3.418H19.688Z" transform="translate(8.887 8.613)"/>
      <path id="패스_15" data-name="패스 15" d="M25.875,20.813h3.418v3.418H25.875Z" transform="translate(11.849 8.613)"/>
      <path id="패스_16" data-name="패스 16" d="M7.875,25.875h3.418v3.418H7.875Z" transform="translate(3.232 11.035)"/>
      <path id="패스_17" data-name="패스 17" d="M14.063,25.875h3.418v3.418H14.063Z" transform="translate(6.194 11.035)"/>
      <path id="패스_18" data-name="패스 18" d="M19.688,25.875h3.418v3.418H19.688Z" transform="translate(8.887 11.035)"/>
      <path id="패스_19" data-name="패스 19" d="M25.875,25.875h3.418v3.418H25.875Z" transform="translate(11.849 11.035)"/>
    </g>
    <text id="동아리_일정" data-name="동아리 일정" transform="translate(152 1055)" font-size="16" font-family="NotoSansCJKkr-Bold, Noto Sans CJK KR" font-weight="700"><tspan x="0" y="0">동아리 일정</tspan></text>
  </g>
</svg>
