<svg xmlns="http://www.w3.org/2000/svg" width="100" height="100" viewBox="0 0 100 100">
  <g id="동아리소개" transform="translate(-463 -963)">
    <rect id="사각형_24010" data-name="사각형 24010" width="100" height="100" transform="translate(463 963)" fill="#fff"/>
    <text id="동아리소개-2" data-name="동아리소개" transform="translate(476 1055)" font-size="16" font-family="NotoSansCJKkr-Bold, Noto Sans CJK KR" font-weight="700"><tspan x="0" y="0">동아리소개</tspan></text>
    <path id="contact" d="M41.1,3.375H3.23a2.106,2.106,0,0,0-2.1,2.1V37.742a2.106,2.106,0,0,0,2.1,2.1h7.716V34.69a1.754,1.754,0,0,1,.9-1.532l8.063-4.482-2.653-6.633V16.7a4.91,4.91,0,1,1,9.82,0v5.34l-2.653,6.632,8.063,4.482a1.754,1.754,0,0,1,.9,1.532v5.157H41.1a2.106,2.106,0,0,0,2.1-2.1V5.48a2.106,2.106,0,0,0-2.1-2.1ZM40.4,37.04H36.193V34.689A4.561,4.561,0,0,0,33.85,30.7l-5.9-3.281,1.936-4.842V16.7a7.715,7.715,0,1,0-15.431,0v5.881l1.936,4.842-5.9,3.282a4.561,4.561,0,0,0-2.345,3.982V37.04H3.93V6.18H40.4Z" transform="translate(491.334 986.153)"/>
  </g>
</svg>
