<svg xmlns="http://www.w3.org/2000/svg" width="654" height="120" viewBox="0 0 654 120">
  <g id="일지작성하기" transform="translate(-48 -1147)">
    <rect id="사각형_24014" data-name="사각형 24014" width="654" height="120" rx="30" transform="translate(48 1147)" fill="#efeded"/>
    <g id="printer" transform="translate(202 1173.75)">
      <path id="패스_24" data-name="패스 24" d="M48.125,6.815H21.875A4.473,4.473,0,0,0,17.5,11.38v9.13H13.125V11.38a8.946,8.946,0,0,1,8.75-9.13h26.25a8.946,8.946,0,0,1,8.75,9.13v9.13H52.5V11.38A4.473,4.473,0,0,0,48.125,6.815ZM61.25,25.075H8.75A4.473,4.473,0,0,0,4.375,29.64V43.334A4.473,4.473,0,0,0,8.75,47.9h4.375v4.565H8.75A8.946,8.946,0,0,1,0,43.334V29.64a8.946,8.946,0,0,1,8.75-9.13h52.5A8.946,8.946,0,0,1,70,29.64V43.334a8.946,8.946,0,0,1-8.75,9.13H56.875V47.9H61.25a4.473,4.473,0,0,0,4.375-4.565V29.64A4.473,4.473,0,0,0,61.25,25.075Z"/>
      <path id="패스_25" data-name="패스 25" d="M45.093,21.679H16.336c-2.647,0-4.793,1.647-4.793,3.679V36.393c0,2.032,2.146,3.679,4.793,3.679H45.093c2.647,0,4.793-1.647,4.793-3.679V25.357C49.886,23.326,47.74,21.679,45.093,21.679ZM16.336,18c-5.294,0-9.586,3.294-9.586,7.357V36.393c0,4.063,4.292,7.357,9.586,7.357H45.093c5.294,0,9.586-3.294,9.586-7.357V25.357c0-4.063-4.292-7.357-9.586-7.357Z" transform="translate(4.286 19.75)" fill-rule="evenodd"/>
      <path id="패스_26" data-name="패스 26" d="M8.179,17.589A1.839,1.839,0,1,1,6.339,15.75,1.839,1.839,0,0,1,8.179,17.589Z" transform="translate(2.857 13.071)"/>
    </g>
    <text id="일지작성하기-2" data-name="일지작성하기" transform="translate(292 1223)" font-size="36" font-family="NotoSansCJKkr-Bold, Noto Sans CJK KR" font-weight="700"><tspan x="0" y="0">일지작성하기</tspan></text>
  </g>
</svg>
