<svg xmlns="http://www.w3.org/2000/svg" width="650.685" height="189.096" viewBox="0 0 650.685 189.096">
  <g id="aboutimg" transform="translate(0 19.04)">
    <g id="그룹_18696" data-name="그룹 18696" transform="translate(0 -19.04)" style="mix-blend-mode: normal;isolation: isolate">
      <text id="C" transform="translate(0 56)" fill="blue" font-size="53" font-family="Roboto" font-weight="700" style="mix-blend-mode: normal;isolation: isolate"><tspan x="0" y="0">C</tspan></text>
      <text id="omputational" transform="translate(35.232 52.932)" font-size="37" font-family="Roboto" font-weight="700" style="mix-blend-mode: normal;isolation: isolate"><tspan x="0" y="0">omputational</tspan></text>
    </g>
    <g id="그룹_18697" data-name="그룹 18697" transform="translate(17.753 43.033)" style="mix-blend-mode: normal;isolation: isolate">
      <text id="D" transform="translate(0 53)" fill="#ed1c24" font-size="51" font-family="Roboto" font-weight="700" style="mix-blend-mode: normal;isolation: isolate"><tspan x="0" y="0">D</tspan></text>
      <text id="esign" transform="translate(34.996 53.932)" font-size="38" font-family="Roboto" font-weight="700" style="mix-blend-mode: normal;isolation: isolate"><tspan x="0" y="0">esign</tspan></text>
    </g>
    <g id="그룹_18698" data-name="그룹 18698" transform="translate(36.122 104.056)" style="mix-blend-mode: normal;isolation: isolate">
      <text id="E" transform="translate(0 52)" fill="#999" font-size="50" font-family="Roboto" font-weight="700" style="mix-blend-mode: normal;isolation: isolate"><tspan x="0" y="0">E</tspan></text>
      <text id="ngineering" transform="translate(30.286 53.932)" font-size="38" font-family="Roboto" font-weight="700" style="mix-blend-mode: normal;isolation: isolate"><tspan x="0" y="0">ngineering</tspan></text>
    </g>
    <path id="패스_31" data-name="패스 31" d="M696.177,51.75a12.517,12.517,0,1,0,12.517,12.517A12.518,12.518,0,0,0,696.177,51.75Zm-.016,21.825a9.281,9.281,0,1,1,9.281-9.281A9.278,9.278,0,0,1,696.161,73.575Z" transform="translate(-317.319 -32.857)"/>
    <g id="그룹_18699" data-name="그룹 18699" transform="translate(284.513 19.835)">
      <rect id="사각형_24034" data-name="사각형 24034" width="13.959" height="13.959" transform="matrix(0.723, -0.691, 0.691, 0.723, 70.325, 81.388)"/>
      <rect id="사각형_24035" data-name="사각형 24035" width="13.959" height="13.959" transform="translate(48.372 87.168) rotate(-7.68)"/>
      <rect id="사각형_24036" data-name="사각형 24036" width="13.959" height="13.959" transform="translate(20.597 91.232) rotate(-61.68)"/>
      <rect id="사각형_24037" data-name="사각형 24037" width="13.959" height="13.959" transform="translate(2.363 65.895) rotate(-25.68)"/>
      <rect id="사각형_24038" data-name="사각형 24038" width="13.959" height="13.959" transform="translate(0 48.413) rotate(-79.68)"/>
      <rect id="사각형_24039" data-name="사각형 24039" width="13.959" height="13.959" transform="matrix(0.723, -0.691, 0.691, 0.723, 10.865, 19.155)"/>
      <rect id="사각형_24040" data-name="사각형 24040" width="13.959" height="13.959" transform="translate(36.856 1.865) rotate(-7.68)"/>
      <rect id="사각형_24041" data-name="사각형 24041" width="13.959" height="13.959" transform="translate(61.421 15.448) rotate(-61.68)"/>
      <rect id="사각형_24042" data-name="사각형 24042" width="13.959" height="13.959" transform="translate(79.928 28.585) rotate(-25.68)"/>
      <rect id="사각형_24043" data-name="사각형 24043" width="13.959" height="13.959" transform="translate(84.684 63.823) rotate(-79.68)"/>
    </g>
    <path id="패스_32" data-name="패스 32" d="M587.046,65.73A43.956,43.956,0,1,0,631,109.686,43.959,43.959,0,0,0,587.046,65.73ZM577.1,127.09q3.5,5.144,10.262,5.144,6.173,0,9.286-2.776t3.939-9.243h10.449q-.916,9.661-7.132,15.068T587.357,140.7a23.544,23.544,0,0,1-12.705-3.419,22.461,22.461,0,0,1-8.477-9.72,35.065,35.065,0,0,1-3.108-14.634v-5.637a35.3,35.3,0,0,1,3.028-15.047,22.8,22.8,0,0,1,8.686-10.031,24.239,24.239,0,0,1,13.08-3.526q9.991,0,16.086,5.412t7.089,15.32H600.587q-.748-6.511-3.794-9.388t-8.933-2.883q-6.84,0-10.508,5T573.6,106.808v5.353q0,9.79,3.5,14.94h0Z" transform="translate(-252.074 -39.346)"/>
    <path id="패스_33" data-name="패스 33" d="M730.35,150.134V89.77h17.828a28,28,0,0,1,14.2,3.563,24.33,24.33,0,0,1,9.6,10.117,32.1,32.1,0,0,1,3.4,15.009v3.028a31.988,31.988,0,0,1-3.419,15.09,24.026,24.026,0,0,1-9.742,10.031,29.274,29.274,0,0,1-14.489,3.526Zm10.487-51.9v43.527h6.843q8.247,0,12.668-5.16t4.5-14.822v-3.36q0-9.822-4.271-15.009t-12.394-5.182h-7.341Z" transform="translate(-338.991 -50.504)"/>
    <path id="패스_34" data-name="패스 34" d="M866.315,124.966H841.527v18.573h28.979v8.375H831.04V91.55h39.176v8.456h-28.69v16.665h24.789v8.29h0Z" transform="translate(-385.726 -51.33)"/>
    <g id="그룹_18700" data-name="그룹 18700" transform="translate(364.491 17.033)">
      <rect id="사각형_24044" data-name="사각형 24044" width="3.976" height="3.976" transform="matrix(0.723, -0.691, 0.691, 0.723, 20.019, 23.17)"/>
      <rect id="사각형_24045" data-name="사각형 24045" width="3.976" height="3.976" transform="translate(13.769 24.809) rotate(-7.68)"/>
      <rect id="사각형_24046" data-name="사각형 24046" width="3.976" height="3.976" transform="translate(5.865 25.969) rotate(-61.68)"/>
      <rect id="사각형_24047" data-name="사각형 24047" width="3.976" height="3.976" transform="translate(0.668 18.759) rotate(-25.68)"/>
      <rect id="사각형_24048" data-name="사각형 24048" width="3.976" height="3.976" transform="translate(0 13.784) rotate(-79.68)"/>
      <rect id="사각형_24049" data-name="사각형 24049" width="3.976" height="3.976" transform="matrix(0.723, -0.691, 0.691, 0.723, 3.092, 5.454)"/>
      <rect id="사각형_24050" data-name="사각형 24050" width="3.976" height="3.976" transform="translate(10.489 0.531) rotate(-7.68)"/>
      <rect id="사각형_24051" data-name="사각형 24051" width="3.976" height="3.976" transform="translate(17.489 4.402) rotate(-61.68)"/>
      <rect id="사각형_24052" data-name="사각형 24052" width="3.976" height="3.976" transform="translate(22.746 8.141) rotate(-25.68)"/>
      <rect id="사각형_24053" data-name="사각형 24053" width="3.976" height="3.976" transform="translate(24.107 18.169) rotate(-79.68)"/>
    </g>
    <g id="그룹_18701" data-name="그룹 18701" transform="translate(341.201 106.837)">
      <rect id="사각형_24054" data-name="사각형 24054" width="7.834" height="7.834" transform="matrix(0.845, -0.535, 0.535, 0.845, 35.693, 47.466)"/>
      <rect id="사각형_24055" data-name="사각형 24055" width="7.834" height="7.834" transform="translate(22.466 56.033) rotate(-86.35)"/>
      <rect id="사각형_24056" data-name="사각형 24056" width="7.834" height="7.834" transform="translate(7.236 47.38) rotate(-50.35)"/>
      <rect id="사각형_24057" data-name="사각형 24057" width="7.834" height="7.834" transform="translate(0 31.43) rotate(-14.35)"/>
      <rect id="사각형_24058" data-name="사각형 24058" width="7.834" height="7.834" transform="translate(0.635 21.546) rotate(-68.35)"/>
      <rect id="사각형_24059" data-name="사각형 24059" width="7.834" height="7.834" transform="matrix(0.845, -0.535, 0.535, 0.845, 9.845, 6.642)"/>
      <rect id="사각형_24060" data-name="사각형 24060" width="7.834" height="7.834" transform="translate(25.552 7.818) rotate(-86.35)"/>
      <rect id="사각형_24061" data-name="사각형 24061" width="7.834" height="7.834" transform="translate(38.076 10.182) rotate(-50.35)"/>
      <rect id="사각형_24062" data-name="사각형 24062" width="7.834" height="7.834" transform="translate(46.811 19.457) rotate(-14.35)"/>
      <rect id="사각형_24063" data-name="사각형 24063" width="7.834" height="7.834" transform="translate(45.539 39.379) rotate(-68.35)"/>
    </g>
    <path id="패스_35" data-name="패스 35" d="M667.951,222.58a24.671,24.671,0,1,0,24.671,24.671,24.669,24.669,0,0,0-24.671-24.671h0Zm-.032,43.013A18.294,18.294,0,1,1,686.212,247.3a18.294,18.294,0,0,1-18.294,18.294h0Z" transform="translate(-298.577 -112.147)"/>
    <g id="그룹_18702" data-name="그룹 18702" transform="translate(490.685 36.662)" style="mix-blend-mode: normal;isolation: isolate">
      <text id="Seoultech" transform="translate(0 9)" font-size="9" font-family="Roboto" font-weight="500" style="mix-blend-mode: normal;isolation: isolate"><tspan x="0" y="0">Seoultech</tspan></text>
      <text id="Mechanical_system_design_enigineering" data-name="Mechanical system design enigineering" transform="translate(0 22.144)" font-size="9" font-family="Roboto" font-weight="500" style="mix-blend-mode: normal;isolation: isolate"><tspan x="0" y="0">Mechanical system design enigineering</tspan></text>
      <text id="CAD_CAM_club" data-name="CAD/CAM club" transform="translate(0 35.294)" font-size="9" font-family="Roboto" font-weight="500" style="mix-blend-mode: normal;isolation: isolate"><tspan x="0" y="0">CAD/CAM club</tspan></text>
    </g>
    <g id="그룹_18703" data-name="그룹 18703" transform="translate(491.167 72.141)" style="mix-blend-mode: normal;isolation: isolate">
      <text id="CDE" transform="translate(0 26)" font-size="25" font-family="Roboto" font-weight="700" style="mix-blend-mode: normal;isolation: isolate"><tspan x="0" y="0">CDE</tspan></text>
    </g>
  </g>
</svg>
