<svg xmlns="http://www.w3.org/2000/svg" width="110" height="80.38" viewBox="0 0 110 80.38">
  <g id="CDElogo" transform="translate(-0.227 -0.036)">
    <path id="패스_30" data-name="패스 30" d="M436.985,9.8a6.875,6.875,0,1,0,6.875,6.875A6.875,6.875,0,0,0,436.985,9.8Zm-.008,11.987a5.1,5.1,0,1,1,5.1-5.1A5.1,5.1,0,0,1,436.977,21.787Z" transform="translate(-384.937 -8.743)" fill="#868686"/>
    <g id="그룹_5" data-name="그룹 5" transform="translate(0.227 1.575)">
      <rect id="사각형_24" data-name="사각형 24" width="7.668" height="7.668" transform="matrix(-0.723, 0.691, -0.691, -0.723, 49.467, 44.956)" fill="#868686"/>
      <rect id="사각형_25" data-name="사각형 25" width="7.668" height="7.668" transform="translate(35.195 54.454) rotate(172.32)" fill="#868686"/>
      <rect id="사각형_26" data-name="사각형 26" width="7.668" height="7.668" transform="translate(18.064 53.747) rotate(-151.68)" fill="#868686"/>
      <rect id="사각형_27" data-name="사각형 27" width="7.668" height="7.668" transform="translate(4.62 43.105) rotate(-115.68)" fill="#868686"/>
      <rect id="사각형_28" data-name="사각형 28" width="7.668" height="7.668" transform="translate(0 26.593) rotate(-79.68)" fill="#868686"/>
      <rect id="사각형_29" data-name="사각형 29" width="7.668" height="7.668" transform="matrix(0.723, -0.691, 0.691, 0.723, 5.968, 10.519)" fill="#868686"/>
      <rect id="사각형_30" data-name="사각형 30" width="7.668" height="7.668" transform="translate(20.245 1.025) rotate(-7.68)" fill="#868686"/>
      <rect id="사각형_31" data-name="사각형 31" width="7.668" height="7.668" transform="translate(37.372 1.735) rotate(28.32)" fill="#868686"/>
      <rect id="사각형_32" data-name="사각형 32" width="7.668" height="7.668" transform="translate(50.813 12.377) rotate(64.32)" fill="#868686"/>
      <rect id="사각형_33" data-name="사각형 33" width="7.668" height="7.668" transform="translate(55.432 28.885) rotate(100.32)" fill="#868686"/>
    </g>
    <circle id="타원_1" data-name="타원 1" cx="24.143" cy="24.143" r="24.143" transform="translate(3.801 5.172)" fill="#868686"/>
    <path id="패스_31" data-name="패스 31" d="M165.686,139.987a11.974,11.974,0,0,1-3.917,8.277,13.352,13.352,0,0,1-9.086,2.971,12.929,12.929,0,0,1-6.98-1.879,12.327,12.327,0,0,1-4.657-5.339,19.268,19.268,0,0,1-1.707-8.038v-3.1A19.41,19.41,0,0,1,141,124.616a12.537,12.537,0,0,1,4.771-5.511,13.308,13.308,0,0,1,7.185-1.935,12.817,12.817,0,0,1,8.836,2.971,12.419,12.419,0,0,1,3.894,8.414h-5.739a8.19,8.19,0,0,0-2.084-5.158,6.888,6.888,0,0,0-4.908-1.583,6.727,6.727,0,0,0-5.772,2.747q-2.015,2.746-2.061,8.057v2.94q0,5.379,1.924,8.205a6.386,6.386,0,0,0,5.636,2.826,7.449,7.449,0,0,0,5.1-1.525q1.708-1.526,2.163-5.078h5.739Z" transform="translate(-124.568 -104.888)" fill="#e2e2e2"/>
    <path id="패스_32" data-name="패스 32" d="M561.57,150.006V116.85h9.791a15.369,15.369,0,0,1,7.8,1.958,13.355,13.355,0,0,1,5.271,5.556,17.643,17.643,0,0,1,1.867,8.243v1.662a17.56,17.56,0,0,1-1.879,8.289,13.192,13.192,0,0,1-5.351,5.511A16.072,16.072,0,0,1,571.112,150H561.57Zm5.761-28.51v23.91h3.758a8.653,8.653,0,0,0,6.957-2.835q2.424-2.835,2.471-8.14v-1.844q0-5.4-2.345-8.243a8.315,8.315,0,0,0-6.808-2.846h-4.03Z" transform="translate(-502.653 -104.601)" fill="#868686"/>
    <path id="패스_33" data-name="패스 33" d="M864.359,140.2H850.742v10.2h15.917v4.6H844.98V121.85H866.5V126.5H850.741v9.155h13.617V140.2Z" transform="translate(-756.431 -109.078)" fill="#868686"/>
    <g id="그룹_6" data-name="그룹 6" transform="translate(44.158 0.036)">
      <rect id="사각형_34" data-name="사각형 34" width="2.183" height="2.183" transform="matrix(-0.723, 0.691, -0.691, -0.723, 14.081, 12.797)" fill="#868686"/>
      <rect id="사각형_35" data-name="사각형 35" width="2.183" height="2.183" transform="translate(10.019 15.499) rotate(172.32)" fill="#868686"/>
      <rect id="사각형_36" data-name="사각형 36" width="2.183" height="2.183" transform="translate(5.142 15.299) rotate(-151.68)" fill="#868686"/>
      <rect id="사각형_37" data-name="사각형 37" width="2.183" height="2.183" transform="translate(1.315 12.271) rotate(-115.68)" fill="#868686"/>
      <rect id="사각형_38" data-name="사각형 38" width="2.183" height="2.183" transform="translate(0 7.571) rotate(-79.68)" fill="#868686"/>
      <rect id="사각형_39" data-name="사각형 39" width="2.183" height="2.183" transform="matrix(0.723, -0.691, 0.691, 0.723, 1.698, 2.995)" fill="#868686"/>
      <rect id="사각형_40" data-name="사각형 40" width="2.183" height="2.183" transform="translate(5.763 0.292) rotate(-7.68)" fill="#868686"/>
      <rect id="사각형_41" data-name="사각형 41" width="2.183" height="2.183" transform="translate(10.638 0.495) rotate(28.32)" fill="#868686"/>
      <rect id="사각형_42" data-name="사각형 42" width="2.183" height="2.183" transform="translate(14.463 3.524) rotate(64.32)" fill="#868686"/>
      <rect id="사각형_43" data-name="사각형 43" width="2.183" height="2.183" transform="translate(15.779 8.222) rotate(100.32)" fill="#868686"/>
    </g>
    <g id="그룹_7" data-name="그룹 7" transform="translate(31.365 49.361)">
      <rect id="사각형_44" data-name="사각형 44" width="4.303" height="4.303" transform="matrix(-0.845, 0.535, -0.535, -0.845, 25.542, 27.405)" fill="#868686"/>
      <rect id="사각형_45" data-name="사각형 45" width="4.303" height="4.303" transform="translate(16.637 31.055) rotate(-176.35)" fill="#868686"/>
      <rect id="사각형_46" data-name="사각형 46" width="4.303" height="4.303" transform="translate(7.289 28.773) rotate(-140.35)" fill="#868686"/>
      <rect id="사각형_47" data-name="사각형 47" width="4.303" height="4.303" transform="translate(1.067 21.433) rotate(-104.35)" fill="#868686"/>
      <rect id="사각형_48" data-name="사각형 48" width="4.303" height="4.303" transform="translate(0.347 11.836) rotate(-68.35)" fill="#868686"/>
      <rect id="사각형_49" data-name="사각형 49" width="4.303" height="4.303" transform="matrix(0.845, -0.535, 0.535, 0.845, 5.407, 3.65)" fill="#868686"/>
      <rect id="사각형_50" data-name="사각형 50" width="4.303" height="4.303" transform="translate(14.31 0) rotate(3.65)" fill="#868686"/>
      <rect id="사각형_51" data-name="사각형 51" width="4.303" height="4.303" transform="translate(23.659 2.281) rotate(39.65)" fill="#868686"/>
      <rect id="사각형_52" data-name="사각형 52" width="4.303" height="4.303" transform="translate(29.882 9.622) rotate(75.65)" fill="#868686"/>
      <rect id="사각형_53" data-name="사각형 53" width="4.303" height="4.303" transform="translate(30.602 19.219) rotate(111.65)" fill="#868686"/>
    </g>
    <path id="패스_34" data-name="패스 34" d="M330,490.72a13.55,13.55,0,1,0,13.55,13.55A13.55,13.55,0,0,0,330,490.72Zm-.017,23.625A10.049,10.049,0,1,1,340.032,504.3,10.049,10.049,0,0,1,329.983,514.345Z" transform="translate(-283.161 -439.382)" fill="#868686"/>
  </g>
</svg>
