<?xml version="1.0" encoding="UTF-8"?><svg id="_레이어_1" xmlns="http://www.w3.org/2000/svg" viewBox="0 0 1052.1 768.8"><defs><style>.cls-1{fill:#fff;}</style></defs><path class="cls-1" d="m495.64,9.76c-36.32,0-65.76,29.44-65.76,65.76s29.44,65.76,65.76,65.76,65.76-29.44,65.76-65.76-29.44-65.76-65.76-65.76Zm-.08,114.65c-26.93,0-48.77-21.83-48.77-48.77s21.83-48.77,48.77-48.77,48.77,21.83,48.77,48.77-21.83,48.77-48.77,48.77Z"/><g><rect class="cls-1" x="384.61" y="406.84" width="73.34" height="73.34" transform="translate(-189.7 413.71) rotate(-43.68)"/><rect class="cls-1" x="258.72" y="467.44" width="73.34" height="73.34" transform="translate(-64.72 44) rotate(-7.68)"/><rect class="cls-1" x="121.22" y="442.44" width="73.34" height="73.34" transform="translate(-338.78 390.81) rotate(-61.68)"/><rect class="cls-1" x="24.67" y="341.4" width="73.34" height="73.34" transform="translate(-157.77 63.92) rotate(-25.68)"/><rect class="cls-1" x="5.98" y="202.89" width="73.34" height="73.34" transform="translate(-200.68 238.6) rotate(-79.68)"/><rect class="cls-1" x="72.26" y="79.86" width="73.34" height="73.34" transform="translate(-50.32 107.48) rotate(-43.68)"/><rect class="cls-1" x="198.2" y="19.29" width="73.34" height="73.34" transform="translate(-5.37 31.89) rotate(-7.68)"/><rect class="cls-1" x="335.67" y="44.32" width="73.34" height="73.34" transform="translate(124.4 370.34) rotate(-61.68)"/><rect class="cls-1" x="432.18" y="145.37" width="73.34" height="73.34" transform="translate(-32.58 221.15) rotate(-25.68)"/><rect class="cls-1" x="450.87" y="283.83" width="73.34" height="73.34" transform="translate(84.88 742.74) rotate(-79.68)"/></g><path class="cls-1" d="m265.1,49.12c-127.53,0-230.92,103.39-230.92,230.92s103.39,230.92,230.92,230.92,230.92-103.39,230.92-230.92S392.64,49.12,265.1,49.12Zm-52.27,322.37c12.27,18.02,30.24,27.03,53.91,27.03,21.63,0,37.9-4.86,48.79-14.59s17.78-25.92,20.69-48.57h54.89c-3.2,33.83-15.68,60.22-37.46,79.17s-50.75,28.42-86.9,28.42c-25.27,0-47.52-5.99-66.76-17.97s-34.09-29-44.54-51.07c-10.45-22.07-15.9-47.7-16.33-76.88v-29.62c0-29.91,5.3-56.26,15.9-79.06,10.6-22.79,25.81-40.36,45.63-52.71,19.82-12.34,42.72-18.51,68.72-18.51,34.99,0,63.16,9.47,84.51,28.42,21.34,18.95,33.76,45.78,37.24,80.48h-54.89c-2.61-22.79-9.26-39.24-19.93-49.33-10.67-10.09-26.32-15.14-46.94-15.14-23.96,0-42.36,8.76-55.21,26.27-12.85,17.51-19.42,43.2-19.71,77.06v28.12c0,34.3,6.13,60.46,18.4,78.48h0Z"/><path class="cls-1" d="m561.34,433.93V116.81h93.65c28.02,0,52.89,6.25,74.6,18.73,21.71,12.49,38.51,30.2,50.42,53.14,11.9,22.94,17.86,49.22,17.86,78.84v15.9c0,30.06-5.99,56.49-17.97,79.28-11.98,22.8-29.04,40.37-51.18,52.71s-47.52,18.51-76.12,18.51h-91.26Zm55.1-272.68v228.69h35.94c28.89,0,51.07-9.04,66.54-27.12,15.46-18.08,23.34-44.03,23.63-77.86v-17.64c0-34.41-7.48-60.69-22.43-78.84-14.96-18.15-36.66-27.22-65.12-27.22h-38.56Z"/><path class="cls-1" d="m1030.1,297.36h-130.24v97.57h152.24v44h-207.35V121.81h205.82v44.43h-150.72v87.56h130.24v43.56h0Z"/><g><rect class="cls-1" x="529.66" y="111.61" width="20.88" height="20.88" transform="translate(65.2 406.79) rotate(-43.68)"/><rect class="cls-1" x="493.82" y="128.85" width="20.88" height="20.88" transform="translate(-14.09 68.64) rotate(-7.68)"/><rect class="cls-1" x="454.68" y="121.75" width="20.88" height="20.88" transform="translate(128.11 478.93) rotate(-61.68)"/><rect class="cls-1" x="427.2" y="92.99" width="20.88" height="20.88" transform="translate(-1.59 199.87) rotate(-25.68)"/><rect class="cls-1" x="421.88" y="53.57" width="20.88" height="20.88" transform="translate(291.89 477.87) rotate(-79.68)"/><rect class="cls-1" x="440.74" y="18.55" width="20.88" height="20.88" transform="translate(104.86 319.62) rotate(-43.68)"/><rect class="cls-1" x="476.6" y="1.3" width="20.88" height="20.88" transform="translate(2.8 65.19) rotate(-7.68)"/><rect class="cls-1" x="515.73" y="8.43" width="20.88" height="20.88" transform="translate(259.94 473.11) rotate(-61.68)"/><rect class="cls-1" x="543.19" y="37.19" width="20.88" height="20.88" transform="translate(34.04 244.62) rotate(-25.68)"/><rect class="cls-1" x="548.52" y="76.61" width="20.88" height="20.88" transform="translate(373.19 621.37) rotate(-79.68)"/></g><g><rect class="cls-1" x="493.14" y="706.94" width="41.16" height="41.16" transform="translate(-309.56 387.8) rotate(-32.35)"/><rect class="cls-1" x="417.13" y="726.37" width="41.16" height="41.16" transform="translate(-335.58 1136.22) rotate(-86.35)"/><rect class="cls-1" x="344.23" y="697.42" width="41.16" height="41.16" transform="translate(-420.8 540.74) rotate(-50.35)"/><rect class="cls-1" x="302.27" y="631.15" width="41.16" height="41.16" transform="translate(-151.45 100.35) rotate(-14.35)"/><rect class="cls-1" x="307.28" y="552.86" width="41.16" height="41.16" transform="translate(-326.09 666.61) rotate(-68.35)"/><rect class="cls-1" x="357.34" y="492.48" width="41.16" height="41.16" transform="translate(-215.88 281.85) rotate(-32.35)"/><rect class="cls-1" x="433.33" y="473.04" width="41.16" height="41.16" transform="translate(-67.61 915.19) rotate(-86.35)"/><rect class="cls-1" x="506.24" y="501.99" width="41.16" height="41.16" transform="translate(-211.7 594.75) rotate(-50.35)"/><rect class="cls-1" x="548.21" y="568.27" width="41.16" height="41.16" transform="translate(-128.2 159.34) rotate(-14.35)"/><rect class="cls-1" x="543.21" y="646.55" width="41.16" height="41.16" transform="translate(-264.28 945.02) rotate(-68.35)"/></g><path class="cls-1" d="m445.82,490.68c-71.58,0-129.6,58.03-129.6,129.6s58.03,129.6,129.6,129.6,129.6-58.03,129.6-129.6-58.03-129.6-129.6-129.6h0Zm-.16,225.96c-53.08,0-96.11-43.03-96.11-96.11s43.03-96.11,96.11-96.11,96.11,43.03,96.11,96.11-43.03,96.11-96.11,96.11h0Z"/></svg>