<?xml version="1.0" encoding="UTF-8"?><svg id="_레이어_1" xmlns="http://www.w3.org/2000/svg" viewBox="0 0 1052.33 768.83"><path d="m495.87,9.8c-36.32,0-65.76,29.44-65.76,65.76s29.44,65.76,65.76,65.76,65.76-29.44,65.76-65.76-29.44-65.76-65.76-65.76Zm-.08,114.65c-26.93,0-48.77-21.83-48.77-48.77s21.83-48.77,48.77-48.77,48.77,21.83,48.77,48.77-21.83,48.77-48.77,48.77Z"/><g><rect x="384.85" y="406.93" width="73.34" height="73.34" transform="translate(1032.72 473.25) rotate(136.32)"/><rect x="258.9" y="467.5" width="73.34" height="73.34" transform="translate(655.91 964.29) rotate(172.32)"/><rect x="121.41" y="442.48" width="73.34" height="73.34" transform="translate(69.97 975.94) rotate(-151.68)"/><rect x="24.89" y="341.41" width="73.34" height="73.34" transform="translate(-252.49 597.42) rotate(-115.68)"/><rect x="6.2" y="202.92" width="73.34" height="73.34" transform="translate(-200.52 238.85) rotate(-79.68)"/><rect x="72.49" y="79.88" width="73.34" height="73.34" transform="translate(-50.28 107.66) rotate(-43.68)"/><rect x="198.43" y="19.31" width="73.34" height="73.34" transform="translate(-5.37 31.94) rotate(-7.68)"/><rect x="335.92" y="44.34" width="73.34" height="73.34" transform="translate(83 -167.04) rotate(28.32)"/><rect x="432.45" y="145.4" width="73.34" height="73.34" transform="translate(429.87 -319.61) rotate(64.32)"/><rect x="451.14" y="283.9" width="73.34" height="73.34" transform="translate(890.54 -101.95) rotate(100.32)"/></g><path d="m265.33,49.16c-127.53,0-230.92,103.39-230.92,230.92s103.39,230.92,230.92,230.92,230.92-103.39,230.92-230.92S392.87,49.16,265.33,49.16Zm-52.27,322.37c12.27,18.02,30.24,27.03,53.91,27.03,21.63,0,37.9-4.86,48.79-14.59,10.89-9.73,17.78-25.92,20.69-48.57h54.89c-3.2,33.83-15.68,60.22-37.46,79.17-21.78,18.95-50.75,28.42-86.9,28.42-25.27,0-47.52-5.99-66.76-17.97-19.24-11.98-34.09-29-44.54-51.07-10.45-22.07-15.9-47.7-16.33-76.88v-29.62c0-29.91,5.3-56.26,15.9-79.06,10.6-22.79,25.81-40.36,45.63-52.71,19.82-12.34,42.72-18.51,68.72-18.51,34.99,0,63.16,9.47,84.51,28.42,21.34,18.95,33.76,45.78,37.24,80.48h-54.89c-2.61-22.79-9.26-39.24-19.93-49.33-10.67-10.09-26.32-15.14-46.94-15.14-23.96,0-42.36,8.76-55.21,26.27-12.85,17.51-19.42,43.2-19.71,77.06v28.12c0,34.3,6.13,60.46,18.4,78.48Z"/><path d="m561.57,433.97V116.85h93.65c28.02,0,52.89,6.25,74.6,18.73,21.71,12.49,38.51,30.2,50.42,53.14,11.9,22.94,17.86,49.22,17.86,78.84v15.9c0,30.06-5.99,56.49-17.97,79.28-11.98,22.8-29.04,40.37-51.18,52.71-22.14,12.34-47.52,18.51-76.12,18.51h-91.26Zm55.1-272.69v228.69h35.94c28.89,0,51.07-9.04,66.54-27.12,15.46-18.08,23.34-44.03,23.63-77.86v-17.64c0-34.41-7.48-60.69-22.43-78.84-14.96-18.15-36.66-27.22-65.12-27.22h-38.55Z"/><path d="m1030.33,297.4h-130.24v97.57h152.24v44h-207.35V121.85h205.82v44.43h-150.72v87.56h130.24v43.56Z"/><g><rect x="529.9" y="111.69" width="20.88" height="20.88" transform="translate(1015.45 -162.76) rotate(136.32)"/><rect x="494.04" y="128.94" width="20.88" height="20.88" transform="translate(1023.07 210.04) rotate(172.32)"/><rect x="454.88" y="121.81" width="20.88" height="20.88" transform="translate(812.24 469.39) rotate(-151.68)"/><rect x="427.39" y="93.03" width="20.88" height="20.88" transform="translate(534.35 542.89) rotate(-115.68)"/><rect x="422.07" y="53.59" width="20.88" height="20.88" transform="translate(292.07 478.09) rotate(-79.68)"/><rect x="440.95" y="18.55" width="20.88" height="20.88" transform="translate(104.94 319.8) rotate(-43.68)"/><rect x="476.82" y="1.3" width="20.88" height="20.88" transform="translate(2.81 65.26) rotate(-7.68)"/><rect x="515.97" y="8.43" width="20.88" height="20.88" transform="translate(71.94 -247.43) rotate(28.32)"/><rect x="543.46" y="37.21" width="20.88" height="20.88" transform="translate(356.77 -472.17) rotate(64.32)"/><rect x="548.78" y="76.65" width="20.88" height="20.88" transform="translate(745.05 -447.49) rotate(100.32)"/></g><g><rect x="493.37" y="706.96" width="41.16" height="41.16" transform="translate(1337.43 1067.17) rotate(147.65)"/><rect x="417.38" y="726.4" width="41.16" height="41.16" transform="translate(827.46 1520.33) rotate(-176.35)"/><rect x="344.48" y="697.46" width="41.16" height="41.16" transform="translate(187.94 1503.84) rotate(-140.35)"/><rect x="302.51" y="631.19" width="41.16" height="41.16" transform="translate(-228.28 1126.31) rotate(-104.35)"/><rect x="307.51" y="552.92" width="41.16" height="41.16" transform="translate(-326 666.84) rotate(-68.35)"/><rect x="357.56" y="492.53" width="41.16" height="41.16" transform="translate(-215.86 281.96) rotate(-32.35)"/><rect x="433.55" y="473.09" width="41.16" height="41.16" transform="translate(32.36 -27.92) rotate(3.65)"/><rect x="506.45" y="502.03" width="41.16" height="41.16" transform="translate(454.73 -216.08) rotate(39.65)"/><rect x="548.42" y="568.29" width="41.16" height="41.16" transform="translate(998.49 -108.31) rotate(75.65)"/><rect x="543.42" y="646.57" width="41.16" height="41.16" transform="translate(1392.18 389.09) rotate(111.65)"/></g><path d="m446.05,490.72c-71.58,0-129.6,58.03-129.6,129.6s58.03,129.6,129.6,129.6,129.6-58.03,129.6-129.6-58.03-129.6-129.6-129.6Zm-.16,225.96c-53.08,0-96.11-43.03-96.11-96.11s43.03-96.11,96.11-96.11,96.11,43.03,96.11,96.11-43.03,96.11-96.11,96.11Z"/></svg>