<svg xmlns="http://www.w3.org/2000/svg" width="58.241" height="58.241" viewBox="0 0 58.241 58.241">
  <path id="facebook-rect" d="M10.634,0A10.611,10.611,0,0,0,0,10.634V47.605A10.611,10.611,0,0,0,10.634,58.239H30.672V35.472h-6.02v-8.2h6.02v-7c0-5.5,3.558-10.555,11.752-10.555a49.653,49.653,0,0,1,5.771.319L48,17.691s-2.5-.024-5.232-.024c-2.956,0-3.428,1.362-3.428,3.622v5.986h8.9l-.388,8.2H39.342V58.241h8.265A10.611,10.611,0,0,0,58.241,47.607V10.634A10.611,10.611,0,0,0,47.607,0Z" fill="#868686"/>
</svg>
