<svg xmlns="http://www.w3.org/2000/svg" width="62.799" height="62.799" viewBox="0 0 62.799 62.799">
  <path id="instagram" d="M41.866,31.4A10.47,10.47,0,0,0,31.4,20.933,10.47,10.47,0,0,0,20.933,31.4,10.47,10.47,0,0,0,31.4,41.866,10.47,10.47,0,0,0,41.866,31.4Zm5.641,0A16.051,16.051,0,0,1,31.4,47.507,16.051,16.051,0,0,1,15.291,31.4,16.051,16.051,0,0,1,31.4,15.291,16.051,16.051,0,0,1,47.507,31.4Zm4.415-16.762A3.761,3.761,0,1,1,45.5,11.981a3.761,3.761,0,0,1,6.418,2.657Zm-20.523-9q-.286,0-3.128-.021t-4.314,0q-1.472.021-3.946.122a32.242,32.242,0,0,0-4.211.408,16.248,16.248,0,0,0-2.922.759A10.693,10.693,0,0,0,6.91,12.879,16.407,16.407,0,0,0,6.153,15.8a32.242,32.242,0,0,0-.408,4.211q-.1,2.474-.122,3.946t0,4.314q.021,2.842.021,3.128t-.021,3.128q-.021,2.842,0,4.314t.122,3.946A32.242,32.242,0,0,0,6.153,47a16.309,16.309,0,0,0,.757,2.92,10.693,10.693,0,0,0,5.969,5.969,16.407,16.407,0,0,0,2.924.757,32.243,32.243,0,0,0,4.211.408q2.474.1,3.946.122t4.314,0q2.842-.021,3.128-.021t3.128.021q2.842.021,4.314,0t3.946-.122A32.239,32.239,0,0,0,47,56.646a16.409,16.409,0,0,0,2.924-.757,10.693,10.693,0,0,0,5.969-5.969A16.407,16.407,0,0,0,56.65,47a32.243,32.243,0,0,0,.408-4.211q.1-2.474.122-3.946t0-4.314q-.021-2.842-.021-3.128t.021-3.128q.021-2.842,0-4.314t-.122-3.946A32.239,32.239,0,0,0,56.65,15.8a16.093,16.093,0,0,0-.761-2.92A10.693,10.693,0,0,0,49.92,6.91,16.407,16.407,0,0,0,47,6.153a32.242,32.242,0,0,0-4.211-.408q-2.474-.1-3.946-.122t-4.314,0q-2.842.021-3.128.021ZM62.8,31.4q0,9.362-.2,12.961-.408,8.5-5.069,13.165T44.36,62.594q-3.6.2-12.961.2t-12.961-.2q-8.5-.408-13.165-5.069T.2,44.36Q0,40.762,0,31.4T.2,18.438q.408-8.5,5.069-13.165T18.438.2Q22.037,0,31.4,0T44.36.2q8.5.408,13.165,5.069t5.069,13.165Q62.8,22.037,62.8,31.4Z" fill="#868686"/>
</svg>
