<svg xmlns="http://www.w3.org/2000/svg" width="260.07" height="41.742" viewBox="0 0 260.07 41.742">
  <g id="logo" transform="translate(-0.04 0.04)">
    <path id="패스_1" data-name="패스 1" d="M394.71,623a1.541,1.541,0,0,0-.29-.48,1.8,1.8,0,0,0-.46-.35,4.367,4.367,0,0,0-.61-.29l-.47-.19a2.076,2.076,0,0,1-.34-.15,1.815,1.815,0,0,1-.27-.18.881.881,0,0,1-.19-.24.779.779,0,0,1-.07-.31.76.76,0,0,1,.28-.63,1.419,1.419,0,0,1,.81-.21,3.278,3.278,0,0,1,.67.07l.53.15h0a3.2,3.2,0,0,0,.19-.72h0c-.19-.06-.41-.12-.65-.17a4.92,4.92,0,0,0-.78-.07,2.23,2.23,0,0,0-1.49.45,1.5,1.5,0,0,0-.54,1.23,1.619,1.619,0,0,0,.09.57,1.321,1.321,0,0,0,.23.42,1.689,1.689,0,0,0,.36.3,2.819,2.819,0,0,0,.46.23l.48.2.51.22a1.31,1.31,0,0,1,.35.22.829.829,0,0,1,.21.28,1.149,1.149,0,0,1,.07.4.91.91,0,0,1-.33.74,1.58,1.58,0,0,1-1,.28,3.1,3.1,0,0,1-.74-.08l-.58-.17h0l-.14.41a2.667,2.667,0,0,0-.07.39h0l.37.11.35.09h.88a2.56,2.56,0,0,0,1.7-.51,1.74,1.74,0,0,0,.62-1.4A2.058,2.058,0,0,0,394.71,623Z" transform="translate(-390.89 -583.85)" fill="#868686"/>
    <path id="패스_2" data-name="패스 2" d="M399.45,624.67H396.9v-2h2v-.88h-2V620.1h2.49v-.41a2.251,2.251,0,0,0,0-.38H396v6.16h3.48v-.41a2.238,2.238,0,0,0-.03-.39Z" transform="translate(-390.89 -583.85)" fill="#868686"/>
    <path id="패스_3" data-name="패스 3" d="M405.45,621.11a3.049,3.049,0,0,0-.48-1,2.169,2.169,0,0,0-.81-.66,2.82,2.82,0,0,0-2.32,0,2.169,2.169,0,0,0-.81.66,2.87,2.87,0,0,0-.48,1,5.12,5.12,0,0,0,0,2.54,2.87,2.87,0,0,0,.48,1,2.17,2.17,0,0,0,.81.66,2.92,2.92,0,0,0,2.32,0,2.17,2.17,0,0,0,.81-.66,3.049,3.049,0,0,0,.48-1,5.45,5.45,0,0,0,0-2.54ZM403,624.75a1.47,1.47,0,0,1-.72-.16,1.25,1.25,0,0,1-.5-.47,2.17,2.17,0,0,1-.31-.74,5,5,0,0,1,0-2,2.319,2.319,0,0,1,.31-.75,1.38,1.38,0,0,1,.5-.46,1.7,1.7,0,0,1,1.44,0,1.38,1.38,0,0,1,.5.46,2.11,2.11,0,0,1,.3.75,4.283,4.283,0,0,1,.11,1,4.37,4.37,0,0,1-.11,1,2,2,0,0,1-.3.74,1.25,1.25,0,0,1-.5.47,1.47,1.47,0,0,1-.72.16Z" transform="translate(-390.89 -583.85)" fill="#868686"/>
    <path id="패스_4" data-name="패스 4" d="M411.22,619.3a3.239,3.239,0,0,0-.88,0h0v3.49a5.443,5.443,0,0,1-.07.89,1.67,1.67,0,0,1-.22.6.89.89,0,0,1-.39.33,1.3,1.3,0,0,1-.59.11,1.39,1.39,0,0,1-.61-.11.89.89,0,0,1-.39-.33,1.671,1.671,0,0,1-.22-.6,5.574,5.574,0,0,1-.06-.89V619.3h0a2.906,2.906,0,0,0-.43,0,2.941,2.941,0,0,0-.44,0h0v3.64A4.569,4.569,0,0,0,407,624a2.05,2.05,0,0,0,.38.83,1.59,1.59,0,0,0,.68.51,3,3,0,0,0,2.05,0,1.65,1.65,0,0,0,.68-.51,2.05,2.05,0,0,0,.38-.83,4.6,4.6,0,0,0,.11-1.1v-3.6Z" transform="translate(-390.89 -583.85)" fill="#868686"/>
    <path id="패스_5" data-name="패스 5" d="M416.08,624.87v-.23h-2.39v-5.33h-.92v6.16h3.31a2.341,2.341,0,0,0,0-.38Z" transform="translate(-390.89 -583.85)" fill="#868686"/>
    <path id="패스_6" data-name="패스 6" d="M421.25,619.32h-4.32a2.291,2.291,0,0,0-.05.52,2.359,2.359,0,0,0,.05.54h1.52v5.05h1.28v-5h1.52a3.1,3.1,0,0,0,.05-.54,3.051,3.051,0,0,0-.05-.57Z" transform="translate(-390.89 -583.85)" fill="#868686"/>
    <path id="패스_7" data-name="패스 7" d="M426.08,624.37h-2.29v-1.58h1.77a2.89,2.89,0,0,0,0-1.07h-1.77v-1.3H426a3.1,3.1,0,0,0,.05-.54,3.055,3.055,0,0,0-.05-.52h-3.5v6.14h3.55a3.1,3.1,0,0,0,.05-.54,3.049,3.049,0,0,0-.02-.59Z" transform="translate(-390.89 -583.85)" fill="#868686"/>
    <path id="패스_8" data-name="패스 8" d="M431.57,625.27a3.836,3.836,0,0,0-.1-.51,2.921,2.921,0,0,0-.19-.49h0a3.855,3.855,0,0,1-.53.14,3,3,0,0,1-.55,0c-1.15,0-1.74-.69-1.74-2.05a2.44,2.44,0,0,1,.43-1.56,1.53,1.53,0,0,1,1.24-.53,1.984,1.984,0,0,1,1.07.15h0l.19-.5a1.722,1.722,0,0,0,.11-.5h0a3.048,3.048,0,0,0-.75-.21,4.434,4.434,0,0,0-.75,0,3,3,0,0,0-1.24.24,2.51,2.51,0,0,0-.91.66,3,3,0,0,0-.57,1,4,4,0,0,0-.19,1.27,4.221,4.221,0,0,0,.18,1.26,3,3,0,0,0,.56,1,2.44,2.44,0,0,0,.92.66,3.13,3.13,0,0,0,1.27.24,5.946,5.946,0,0,0,.76,0,4.23,4.23,0,0,0,.8-.22h0Z" transform="translate(-390.89 -583.85)" fill="#868686"/>
    <path id="패스_9" data-name="패스 9" d="M437.36,619.31a3.487,3.487,0,0,0-.63,0,3.307,3.307,0,0,0-.62,0h0v2.39h-2v-2.39h0a3.487,3.487,0,0,0-.63,0,3.357,3.357,0,0,0-.63,0h0v6.13h0a4.6,4.6,0,0,0,.64,0,4.691,4.691,0,0,0,.62,0h0v-2.63h2v2.63h0a4.466,4.466,0,0,0,.63,0,4.549,4.549,0,0,0,.62,0h0Z" transform="translate(-390.89 -583.85)" fill="#868686"/>
    <path id="패스_10" data-name="패스 10" d="M503.6,597.21H491.76v2.57h8.71a.44.44,0,0,1,.31.08.635.635,0,0,1,.07.32v9a.06.06,0,0,0,0,.06h3a.06.06,0,0,0,.06-.06v-11.6A.35.35,0,0,0,503.6,597.21Z" transform="translate(-390.89 -583.85)" fill="#868686"/>
    <path id="패스_11" data-name="패스 11" d="M625.3,610.62H610.46v2.53h12.1c.07,0,.13.09.13.16v5.81h3.1v-8a.689.689,0,0,0-.15-.46.55.55,0,0,0-.34-.04Z" transform="translate(-390.89 -583.85)" fill="#868686"/>
    <path id="패스_12" data-name="패스 12" d="M506.46,613.24v6h3V606.35h3.11v-2.52H509.5v-8.5h-3v15.38h-8.27v-7.1h-3v7.1h-4.42v2.52h.05Z" transform="translate(-390.89 -583.85)" fill="#868686"/>
    <path id="패스_13" data-name="패스 13" d="M482.56,596a6.24,6.24,0,0,0-8.14,0,4.8,4.8,0,0,0,0,7.31,6.27,6.27,0,0,0,8.14,0,4.78,4.78,0,0,0,0-7.31Zm-2.28,5.56a2.41,2.41,0,0,1-3.57,0h0a2.69,2.69,0,0,1-.75-1.91,2.72,2.72,0,0,1,.75-1.91,2.41,2.41,0,0,1,3.57,0,2.83,2.83,0,0,1,0,3.82Z" transform="translate(-390.89 -583.85)" fill="#868686"/>
    <path id="패스_14" data-name="패스 14" d="M464.77,595.2h-3a.05.05,0,0,0-.05,0v6H456.5v2.61h5.26v15.31h3.05v-24S464.79,595.2,464.77,595.2Z" transform="translate(-390.89 -583.85)" fill="#868686"/>
    <path id="패스_15" data-name="패스 15" d="M488.91,605.57H468.08v2.57h8.71v1.31h-6.51V612h13.05v1.25H470.28V617a2.46,2.46,0,0,0,.45,1.75,1.9,1.9,0,0,0,1.56.53H486.4v-2.42H473.56a.13.13,0,0,1-.14-.11v-1.12h12.44a.56.56,0,0,0,.46-.18.64.64,0,0,0,.13-.43v-5a.37.37,0,0,0-.34-.4h-5.92v-1.31h8.72v-2.74Z" transform="translate(-390.89 -583.85)" fill="#868686"/>
    <path id="패스_16" data-name="패스 16" d="M459.53,608.38h-.14a8.15,8.15,0,0,1-3.52-2.62,8.71,8.71,0,0,1-1.87-5.84V595.3h-3.09a.05.05,0,0,0-.05,0v4.62a8.76,8.76,0,0,1-1.86,5.84,8.23,8.23,0,0,1-3.53,2.62h-.14a.143.143,0,0,0-.1.2l.12.15,1.42,1.84a.16.16,0,0,0,.2.06,8.13,8.13,0,0,0,3.13-1.91,8.729,8.729,0,0,0,2.35-3,8.73,8.73,0,0,0,2.35,3,8.2,8.2,0,0,0,3.13,1.91.16.16,0,0,0,.2-.06l1.43-1.85.1-.13a.13.13,0,0,0,0-.13A.353.353,0,0,0,459.53,608.38Z" transform="translate(-390.89 -583.85)" fill="#868686"/>
    <path id="패스_17" data-name="패스 17" d="M588,610.63a.33.33,0,0,1-.25-.1.49.49,0,0,1-.1-.32V599.82h6.06V597.3H584.6v12.58a3.82,3.82,0,0,0,.74,2.58,2.81,2.81,0,0,0,2.22.84h10.07l-.19-2.62Z" transform="translate(-390.89 -583.85)" fill="#868686"/>
    <path id="패스_18" data-name="패스 18" d="M595.88,619.22h2.87V605.57h1.61v13.64h2.87v-24h-2.91V603H598.8v-7.7h-2.87Z" transform="translate(-390.89 -583.85)" fill="#868686"/>
    <path id="패스_19" data-name="패스 19" d="M648.58,597.22H632.49v2.57H645.4a.52.52,0,0,1,.28.06.46.46,0,0,1,.09.34v12.09a.06.06,0,0,0,.06.06h3a.06.06,0,0,0,.06-.06V597.59a.4.4,0,0,0-.31-.37Z" transform="translate(-390.89 -583.85)" fill="#868686"/>
    <path id="패스_20" data-name="패스 20" d="M651,614.65h-7.84V605.3H640.2v9.35h-2.06V605.3h-2.95v9.35h-5.18v2.54H651v-2.54Z" transform="translate(-390.89 -583.85)" fill="#868686"/>
    <path id="패스_21" data-name="패스 21" d="M581.38,605.62H560.52v2.53h8.72v1.3H562.8V612h13v1.26h-13v3.64a2.43,2.43,0,0,0,.61,1.94,2.12,2.12,0,0,0,1.4.39h14.11v-2.48H566a.12.12,0,0,1-.13-.11v-1H578.3a.51.51,0,0,0,.46-.19.69.69,0,0,0,.13-.43v-5.07a.37.37,0,0,0-.34-.4h-5.91v-1.32h8.71v-2.47a.072.072,0,1,0,.03-.14Z" transform="translate(-390.89 -583.85)" fill="#868686"/>
    <path id="패스_22" data-name="패스 22" d="M550.13,597.21H539.46v2.58h7.75c0,3.74-.94,6.23-2.78,7.95a13.88,13.88,0,0,1-6.13,3.42h-.14a.15.15,0,0,0-.1.1v.06a.13.13,0,0,0,0,.09l.09.11,1.27,1.6a.12.12,0,0,0,.15.06,14.57,14.57,0,0,0,7.23-3.9c2.43-2.22,3.66-5.35,3.66-9.85v-1.92a.45.45,0,0,0-.08-.29A.4.4,0,0,0,550.13,597.21Z" transform="translate(-390.89 -583.85)" fill="#868686"/>
    <rect id="사각형_23" data-name="사각형 23" width="3.04" height="24.06" rx="0.04" transform="translate(163.33 11.35)" fill="#868686"/>
    <path id="패스_23" data-name="패스 23" d="M533.07,610.62H518.24v2.53h12.09a.17.17,0,0,1,.14.16v5.81h3.1v-8a.69.69,0,0,0-.15-.46A.55.55,0,0,0,533.07,610.62Z" transform="translate(-390.89 -583.85)" fill="#868686"/>
    <path id="패스_24" data-name="패스 24" d="M528.27,597.21H523v-2h-3.17v2h-5.18v2.57h2a4.82,4.82,0,0,0-.83,2.75,4.64,4.64,0,0,0,1.67,3.6,6.17,6.17,0,0,0,8,0,4.66,4.66,0,0,0,1.66-3.6,4.82,4.82,0,0,0-.83-2.75h2v-2.57Zm-5.06,7.25a2.38,2.38,0,0,1-3.52,0,2.65,2.65,0,0,1-.74-1.88,2.89,2.89,0,0,1,.74-2,2.38,2.38,0,0,1,3.52,0,2.93,2.93,0,0,1,.73,2A2.69,2.69,0,0,1,523.21,604.46Z" transform="translate(-390.89 -583.85)" fill="#868686"/>
    <path id="패스_25" data-name="패스 25" d="M536.71,600.28h-3.06v-5h-3v14h3v-6h3.06v-2.79S536.73,600.28,536.71,600.28Z" transform="translate(-390.89 -583.85)" fill="#868686"/>
    <path id="패스_26" data-name="패스 26" d="M620.5,597.22h-5.23v-2H612.1v2h-5.18v2.53h2a4.85,4.85,0,0,0-.83,2.76,4.64,4.64,0,0,0,1.67,3.6,6.16,6.16,0,0,0,8,0,4.671,4.671,0,0,0,1.67-3.6,4.87,4.87,0,0,0-.83-2.76h2v-2.53Zm-5.06,7.24a2.35,2.35,0,0,1-1.77.78,2.3,2.3,0,0,1-1.75-.78,2.65,2.65,0,0,1-.74-1.87,2.93,2.93,0,0,1,.74-2,2.34,2.34,0,0,1,1.75-.78,2.38,2.38,0,0,1,1.77.78,2.94,2.94,0,0,1,.73,2,2.65,2.65,0,0,1-.73,1.87Z" transform="translate(-390.89 -583.85)" fill="#868686"/>
    <path id="패스_27" data-name="패스 27" d="M628.94,600.27h-3.06v-5h-3V609.2h3v-6h3.06v-2.93Z" transform="translate(-390.89 -583.85)" fill="#868686"/>
    <path id="패스_28" data-name="패스 28" d="M580,602.33a10.91,10.91,0,0,1-1.5-.16c-2.82-.52-5.93-2-5.94-5.25v-1.66h-3.43v1.66c0,3.28-3.12,4.73-5.94,5.25a10.741,10.741,0,0,1-1.5.16c-.2,0-.11.25-.11.25l1.08,1.83a.27.27,0,0,0,.13.05,11.289,11.289,0,0,0,4.95-1.05,9.471,9.471,0,0,0,2.35-1.66,5.473,5.473,0,0,0,.76-.83,4.6,4.6,0,0,0,.76.83,9.24,9.24,0,0,0,2.34,1.66,11.31,11.31,0,0,0,5,1.05.19.19,0,0,0,.12-.05l1.08-1.83A.173.173,0,0,0,580,602.33Z" transform="translate(-390.89 -583.85)" fill="#868686"/>
    <path id="패스_29" data-name="패스 29" d="M437.18,598.78H422.45V584a.19.19,0,0,0-.19-.19H406.21a.19.19,0,0,0-.19.19v14.72H391.28a.2.2,0,0,0-.19.19V610a.19.19,0,0,0,.2.19h4.78V615a.2.2,0,0,0,.19.19h11.07a.2.2,0,0,0,.2-.19V600.28h3.28a.44.44,0,0,0,.3-.15l3.1-4.24,3.07,4.21a.47.47,0,0,0,.3.18H421V615a.2.2,0,0,0,.2.19h16a.19.19,0,0,0,.19-.19v-6.1a.18.18,0,0,0-.19-.19h-4.8v-3.47h4.78a.19.19,0,0,0,.19-.2V599a.17.17,0,0,0-.19-.22ZM406,613.7h-8.44v-4.78a.19.19,0,0,0-.19-.19H392.6v-8.45H406Zm15-14.92h-2.82l-3.81-5.29a.13.13,0,0,0-.22,0l-3.87,5.29h-2.7V585.36H421Zm14.92,5h-4.78a.19.19,0,0,0-.19.19V610a.18.18,0,0,0,.19.19h4.78v3.47H422.45V600.28h13.42Z" transform="translate(-390.89 -583.85)" fill="#868686"/>
  </g>
</svg>
